<svg xmlns="http://www.w3.org/2000/svg" width="1511" height="384" fill="none"><path fill="#C00" fill-rule="evenodd" d="M166.32.004c-2.519.031-5.037.062-7.556.072C109.006.191 62.238 19.31 26.33 54.024l-1.64 1.605c-.27.262-.543.52-.814.779-2.143 2.042-4.222 4.022-5.306 6.861-.105.847-.176 1.416-.123 1.973.107 1.14.73 2.232 2.627 5.558a362.43 362.43 0 0 1 2.634 4.527l1.42 2.481a1724.4 1724.4 0 0 1 8.851 15.463l1.9 3.358 1.876 3.27 1.752 3.093c1.96 3.434 3.421 6.353 3.809 10.324l-1.622 1.93C22.328 132.1 9.967 160.441 4.313 184.887a945.12 945.12 0 0 1-.996 4.429C.638 199.353.054 208.99.009 219.31l-.006 2.131c-.106 19.568 2.465 39.604 9.977 57.813l1.336 3.062c9.035 21.135 20.697 39.808 37.493 55.588l1.507 1.412c11.392 10.952 23.883 20.169 38.104 27.087l1.896.913c11.117 5.456 22.455 9.36 34.467 12.382l2.533.618c14.194 3.472 28.4 3.47 42.957 3.125 39.865-1.628 79.462-20.605 106.606-49.571l1.437-1.554c33.179-35.857 43-76.631 43-125h-93v-54h-31v139h31v-54h61l-.035.192c-1.156 6.355-2.218 12.199-4.019 18.327l-.759 2.481c-1.905 6.244-3.837 12.382-6.734 18.25l-1.453 2.75c-7.712 15.088-17.12 28.405-30.02 39.516l-2.98 2.484c-26.031 21.746-57.148 30.148-90.547 29.379-30.802-1.24-62.862-15.156-84.153-37.769l-2.3-2.61c-24.793-27.87-35.012-59.293-34.282-96.308 1.04-30.863 14.26-62.136 36.848-83.516l2.434-2.176c24.123-21.655 53.132-35.508 86.004-35.361 2.198.025 4.395.049 6.594.046 7.602-.023 14.998.048 22.442 1.805l1.96.51c22.853 5.191 47.117 16.58 63.273 34.02l1.727 1.98c13.783 15.332 25.294 32.501 31 52.5l2 7.5h32c0-25.414-19.057-56.057-35.625-74.25-1.001-.989-1.474-1.456-1.914-1.952-.395-.445-.763-.912-1.461-1.798-.907-2.377-1.168-3.536-.295-5.956l1.181-2.071 1.329-2.371 1.472-2.539a1219.69 1219.69 0 0 1 4.657-8.196l1.656-2.867 1.671-2.894 1.665-2.883c1.074-1.866 2.15-3.732 3.226-5.598 2.5-4.26 4.915-8.478 6.965-12.976.254-1.425.372-2.083.267-2.704-.089-.534-.343-1.04-.814-1.98l-1.98-1.965c-24.203-24.055-51.965-41.721-84.676-51.761l-3.074-.926C197.38 1.949 182.18-.101 166.32.004Zm91.871 83.187c2.937-4.854 5.592-9.359 7.125-14.875-59.589-44.909-150.865-55.944-209 0v3c1.076 1.615 2.143 3.239 3.145 4.901l1.237 2.111 1.348 2.295 1.395 2.38c1.33 2.267 2.66 4.533 3.988 6.8l.887 1.513a71.422 71.422 0 0 0 6.933-3.847c32.583-20.75 72.291-29.142 110.543-22.84l3.524.687c18.577 3.455 34.327 9.758 50.872 18.831 1.344.739 2.689 1.474 4.037 2.206 2.455 1.327 4.906 2.659 7.352 4.002l1.739.961c1.157-1.913 2.309-3.83 3.457-5.75l1.418-2.375Z" clip-rule="evenodd"/><path fill="#fff" d="M151.316 176.316h30v93h-30v-93Z"/><path fill="#fff" d="M181.316 125.316c1 1 1 1 1.113 3.96l-.016 3.919-.004 2.081c-.006 2.201-.018 4.402-.031 6.603l-.014 4.467a4457.2 4457.2 0 0 1-.048 10.97 2854.08 2854.08 0 0 1-3.255-.466c-20.76-2.959-40.723-2.538-58.412 10.715-13.792 11.254-24.953 26.746-27.333 44.751-1.658 18.86 2.144 36.932 13.75 52.188 12.307 14.486 28.128 24.257 47.302 25.999 9.263.532 17.677-.76 26.948-2.187v32c-28.586 4.084-56.277-.176-79.901-17.384-22.682-17.51-34.922-41.179-39.697-69.112-1.208-10.521-.915-21.209 1.598-31.504l.742-3.441c6.143-26.069 23.187-47.331 45.508-61.746 21.101-12.502 47.666-18.374 71.75-11.813ZM419 269c-4 0-7.65-.95-10.95-2.85-3.2-2-5.8-4.6-7.8-7.8-1.9-3.3-2.85-6.95-2.85-10.95v-64.8c0-4 .95-7.6 2.85-10.8 2-3.3 4.6-5.9 7.8-7.8 3.3-2 6.95-3 10.95-3h64.65c4 0 7.6 1 10.8 3 3.3 1.9 5.95 4.5 7.95 7.8 2 3.2 3 6.8 3 10.8v9.3h-21.9v-8.25c0-.3-.1-.5-.3-.6-.1-.2-.3-.3-.6-.3h-62.7c-.3 0-.55.1-.75.3-.1.1-.15.3-.15.6v62.7c0 .3.05.55.15.75.2.1.45.15.75.15h62.7c.3 0 .5-.05.6-.15.2-.2.3-.45.3-.75v-17.7h-23.85V206.9h45.75v40.5c0 4-1 7.65-3 10.95-2 3.2-4.65 5.8-7.95 7.8-3.2 1.9-6.8 2.85-10.8 2.85H419Zm114.912 31.65V279.2h52.05c.2 0 .4-.1.6-.3.2-.2.3-.4.3-.6V269h-45.75c-3.9 0-7.45-.95-10.65-2.85-3.2-2-5.8-4.6-7.8-7.8-1.9-3.2-2.85-6.7-2.85-10.5V182.3h21.3v64.5c0 .2.1.4.3.6.2.2.4.3.6.3h43.95c.2 0 .4-.1.6-.3.2-.2.3-.4.3-.6v-64.5h21.3v97.2c0 3.9-.95 7.45-2.85 10.65-1.8 3.2-4.35 5.75-7.65 7.65-3.2 1.9-6.75 2.85-10.65 2.85h-53.1ZM624.297 269v-87h106.2c4 0 7.6 1 10.8 3 3.2 1.9 5.75 4.45 7.65 7.65 1.9 3.2 2.85 6.7 2.85 10.5V269h-21.3v-64.8c0-.2-.1-.4-.3-.6-.1-.2-.3-.3-.6-.3h-29.85c-.3 0-.55.1-.75.3-.1.2-.15.4-.15.6V269h-21.45v-64.8c0-.2-.1-.4-.3-.6-.2-.2-.4-.3-.6-.3h-30c-.2 0-.4.1-.6.3-.1.2-.15.4-.15.6V269h-21.45Zm147.231 0V161h99.6v21.75h-77.7v21.3h62.55v21.9h-62.55V269h-21.9Zm128.649 0c-3.8 0-7.3-.95-10.5-2.85-3.2-2-5.8-4.6-7.8-7.8-1.9-3.2-2.85-6.7-2.85-10.5v-94.5h21.45v93.45c0 .2.1.4.3.6.2.2.4.3.6.3h17.1V269h-18.3Zm51.419 0c-3.8 0-7.35-.95-10.65-2.85-3.2-2-5.75-4.6-7.65-7.8-1.9-3.2-2.85-6.7-2.85-10.5V182h21.3v64.8c0 .2.1.4.3.6.2.2.4.3.6.3h43.8c.2 0 .4-.1.6-.3.2-.2.3-.4.3-.6V182h21.304v65.85c0 3.8-.95 7.3-2.85 10.5-1.9 3.2-4.45 5.8-7.65 7.8-3.2 1.9-6.75 2.85-10.654 2.85h-45.9Zm100.484 0c-3.8 0-7.3-.95-10.5-2.85-3.2-2-5.8-4.6-7.8-7.8-1.9-3.2-2.85-6.7-2.85-10.5v-44.7c0-3.8.95-7.3 2.85-10.5 2-3.2 4.6-5.75 7.8-7.65 3.2-2 6.7-3 10.5-3h45.9c3.9 0 7.45 1 10.65 3 3.2 1.9 5.75 4.45 7.65 7.65 1.9 3.2 2.85 6.7 2.85 10.5v33.15h-66.9v10.5c0 .2.1.4.3.6.2.2.4.3.6.3h66V269h-67.05Zm.15-51.75h45.6V204.2c0-.2-.1-.4-.3-.6-.2-.2-.4-.3-.6-.3h-43.8c-.2 0-.4.1-.6.3-.2.2-.3.4-.3.6v13.05Zm83 51.75v-87h67.05c3.9 0 7.45 1 10.65 3 3.2 1.9 5.75 4.45 7.65 7.65 1.9 3.2 2.85 6.7 2.85 10.5V269h-21.3v-64.8c0-.2-.1-.4-.3-.6-.1-.2-.3-.3-.6-.3h-43.8c-.2 0-.4.1-.6.3-.2.2-.3.4-.3.6V269h-21.3Zm121.63 0c-3.8 0-7.3-.95-10.5-2.85-3.2-2-5.8-4.6-7.8-7.8-1.9-3.2-2.85-6.7-2.85-10.5v-44.7c0-3.8.95-7.3 2.85-10.5 2-3.2 4.6-5.75 7.8-7.65 3.2-2 6.7-3 10.5-3h66.9v21.3h-65.85c-.2 0-.4.1-.6.3-.2.2-.3.4-.3.6v42.6c0 .2.1.4.3.6.2.2.4.3.6.3h66V269h-67.05Zm100.49 0c-3.8 0-7.3-.95-10.5-2.85-3.2-2-5.8-4.6-7.8-7.8-1.9-3.2-2.85-6.7-2.85-10.5v-44.7c0-3.8.95-7.3 2.85-10.5 2-3.2 4.6-5.75 7.8-7.65 3.2-2 6.7-3 10.5-3h45.9c3.9 0 7.45 1 10.65 3 3.2 1.9 5.75 4.45 7.65 7.65 1.9 3.2 2.85 6.7 2.85 10.5v33.15h-66.9v10.5c0 .2.1.4.3.6.2.2.4.3.6.3h66V269h-67.05Zm.15-51.75h45.6V204.2c0-.2-.1-.4-.3-.6-.2-.2-.4-.3-.6-.3h-43.8c-.2 0-.4.1-.6.3-.2.2-.3.4-.3.6v13.05Zm81.68 51.75v-65.85c0-3.8.95-7.3 2.85-10.5 2-3.2 4.6-5.75 7.8-7.65 3.3-2 6.85-3 10.65-3h48.15v21.3h-47.25c-.2 0-.4.1-.6.3-.2.2-.3.4-.3.6V269h-21.3Z"/></svg>